<mxfile host="65bd71144e">
    <diagram name="Page-1" id="bYKYH9M7OEcl-mzwJ3hW">
        <mxGraphModel dx="1017" dy="429" grid="1" gridSize="10" guides="1" tooltips="1" connect="1" arrows="1" fold="1" page="1" pageScale="1" pageWidth="850" pageHeight="1100" math="0" shadow="0">
            <root>
                <mxCell id="0"/>
                <mxCell id="1" parent="0"/>
                <mxCell id="4" value="" style="whiteSpace=wrap;html=1;aspect=fixed;" parent="1" vertex="1">
                    <mxGeometry x="240" width="660" height="660" as="geometry"/>
                </mxCell>
                <mxCell id="13" style="edgeStyle=none;html=1;exitX=0.5;exitY=0.5;exitDx=0;exitDy=0;exitPerimeter=0;entryX=0;entryY=0.5;entryDx=0;entryDy=0;" parent="1" source="2" target="3" edge="1">
                    <mxGeometry relative="1" as="geometry"/>
                </mxCell>
                <mxCell id="14" style="edgeStyle=none;html=1;exitX=0.5;exitY=0.5;exitDx=0;exitDy=0;exitPerimeter=0;entryX=0;entryY=0.5;entryDx=0;entryDy=0;" parent="1" source="2" target="5" edge="1">
                    <mxGeometry relative="1" as="geometry"/>
                </mxCell>
                <mxCell id="15" style="edgeStyle=none;html=1;exitX=0.5;exitY=0.5;exitDx=0;exitDy=0;exitPerimeter=0;entryX=0;entryY=0.5;entryDx=0;entryDy=0;" parent="1" source="2" target="7" edge="1">
                    <mxGeometry relative="1" as="geometry"/>
                </mxCell>
                <mxCell id="16" style="edgeStyle=none;html=1;exitX=0.5;exitY=0.5;exitDx=0;exitDy=0;exitPerimeter=0;entryX=0;entryY=0.5;entryDx=0;entryDy=0;" parent="1" source="2" target="8" edge="1">
                    <mxGeometry relative="1" as="geometry"/>
                </mxCell>
                <mxCell id="17" style="edgeStyle=none;html=1;exitX=0.5;exitY=0.5;exitDx=0;exitDy=0;exitPerimeter=0;entryX=0;entryY=0.5;entryDx=0;entryDy=0;" parent="1" source="2" target="9" edge="1">
                    <mxGeometry relative="1" as="geometry"/>
                </mxCell>
                <mxCell id="18" style="edgeStyle=none;html=1;exitX=0.5;exitY=0.5;exitDx=0;exitDy=0;exitPerimeter=0;entryX=0;entryY=0.5;entryDx=0;entryDy=0;" parent="1" source="2" target="10" edge="1">
                    <mxGeometry relative="1" as="geometry"/>
                </mxCell>
                <mxCell id="19" style="edgeStyle=none;html=1;exitX=0.5;exitY=0.5;exitDx=0;exitDy=0;exitPerimeter=0;entryX=0;entryY=0.5;entryDx=0;entryDy=0;" parent="1" source="2" target="11" edge="1">
                    <mxGeometry relative="1" as="geometry"/>
                </mxCell>
                <mxCell id="2" value="User" style="shape=umlActor;verticalLabelPosition=bottom;verticalAlign=top;html=1;outlineConnect=0;" parent="1" vertex="1">
                    <mxGeometry x="130" y="270" width="60" height="100" as="geometry"/>
                </mxCell>
                <mxCell id="3" value="Đăng nhập/ đăng ký" style="ellipse;whiteSpace=wrap;html=1;" parent="1" vertex="1">
                    <mxGeometry x="325" y="50" width="120" height="50" as="geometry"/>
                </mxCell>
                <mxCell id="5" value="Quản lý ví" style="ellipse;whiteSpace=wrap;html=1;" parent="1" vertex="1">
                    <mxGeometry x="322.5" y="130" width="125" height="50" as="geometry"/>
                </mxCell>
                <mxCell id="7" value="Ghi chép giao dịch" style="ellipse;whiteSpace=wrap;html=1;" parent="1" vertex="1">
                    <mxGeometry x="320" y="210" width="130" height="50" as="geometry"/>
                </mxCell>
                <mxCell id="8" value="Quản lý danh sách &lt;br&gt;giao dịch" style="ellipse;whiteSpace=wrap;html=1;" parent="1" vertex="1">
                    <mxGeometry x="322.5" y="300" width="130" height="50" as="geometry"/>
                </mxCell>
                <mxCell id="9" value="Quản lý danh mục &lt;br&gt;tùy chỉnh" style="ellipse;whiteSpace=wrap;html=1;" parent="1" vertex="1">
                    <mxGeometry x="320" y="390" width="130" height="50" as="geometry"/>
                </mxCell>
                <mxCell id="10" value="Thống kê, báo cáo" style="ellipse;whiteSpace=wrap;html=1;" parent="1" vertex="1">
                    <mxGeometry x="325" y="570" width="125" height="50" as="geometry"/>
                </mxCell>
                <mxCell id="11" value="Quản lý ngân sách" style="ellipse;whiteSpace=wrap;html=1;" parent="1" vertex="1">
                    <mxGeometry x="322.5" y="480" width="130" height="60" as="geometry"/>
                </mxCell>
                <mxCell id="20" value="Xác thực" style="ellipse;whiteSpace=wrap;html=1;" parent="1" vertex="1">
                    <mxGeometry x="520" y="47.5" width="130" height="55" as="geometry"/>
                </mxCell>
                <mxCell id="25" value="&amp;lt;&amp;lt;include&amp;gt;&amp;gt;" style="html=1;verticalAlign=bottom;labelBackgroundColor=none;endArrow=open;endFill=0;dashed=1;exitX=1;exitY=0.5;exitDx=0;exitDy=0;entryX=0;entryY=0.5;entryDx=0;entryDy=0;" parent="1" source="3" target="20" edge="1">
                    <mxGeometry width="160" relative="1" as="geometry">
                        <mxPoint x="550" y="190" as="sourcePoint"/>
                        <mxPoint x="710" y="190" as="targetPoint"/>
                    </mxGeometry>
                </mxCell>
                <mxCell id="BFMFk2xktWWGfKK36Wba-27" style="edgeStyle=none;html=1;exitX=0.5;exitY=0.5;exitDx=0;exitDy=0;exitPerimeter=0;entryX=1;entryY=0.5;entryDx=0;entryDy=0;" parent="1" source="BFMFk2xktWWGfKK36Wba-29" target="20" edge="1">
                    <mxGeometry relative="1" as="geometry">
                        <mxPoint x="975" y="352.5" as="sourcePoint"/>
                    </mxGeometry>
                </mxCell>
                <mxCell id="BFMFk2xktWWGfKK36Wba-39" style="edgeStyle=none;html=1;exitX=0.5;exitY=0.5;exitDx=0;exitDy=0;exitPerimeter=0;entryX=1;entryY=0.5;entryDx=0;entryDy=0;" parent="1" source="BFMFk2xktWWGfKK36Wba-29" target="BFMFk2xktWWGfKK36Wba-31" edge="1">
                    <mxGeometry relative="1" as="geometry"/>
                </mxCell>
                <mxCell id="BFMFk2xktWWGfKK36Wba-29" value="Server&lt;br&gt;" style="shape=umlActor;verticalLabelPosition=bottom;verticalAlign=top;html=1;" parent="1" vertex="1">
                    <mxGeometry x="940" y="165" width="60" height="105" as="geometry"/>
                </mxCell>
                <mxCell id="BFMFk2xktWWGfKK36Wba-31" value="Đồng bộ dũ liệu" style="ellipse;whiteSpace=wrap;html=1;" parent="1" vertex="1">
                    <mxGeometry x="690" y="192.5" width="125" height="50" as="geometry"/>
                </mxCell>
                <mxCell id="BFMFk2xktWWGfKK36Wba-40" value="&lt;font style=&quot;font-size: 18px;&quot;&gt;Ứng dụng quản lý tài chính cá nhân&lt;/font&gt;" style="text;html=1;strokeColor=none;fillColor=none;align=center;verticalAlign=middle;whiteSpace=wrap;rounded=0;" parent="1" vertex="1">
                    <mxGeometry x="402.5" width="320" height="40" as="geometry"/>
                </mxCell>
                <mxCell id="BFMFk2xktWWGfKK36Wba-42" value="Cập nhật dữ liệu" style="ellipse;whiteSpace=wrap;html=1;" parent="1" vertex="1">
                    <mxGeometry x="510" y="300" width="130" height="50" as="geometry"/>
                </mxCell>
                <mxCell id="BFMFk2xktWWGfKK36Wba-44" value="&amp;lt;&amp;lt;include&amp;gt;&amp;gt;" style="html=1;verticalAlign=bottom;labelBackgroundColor=none;endArrow=open;endFill=0;dashed=1;exitX=1;exitY=0.5;exitDx=0;exitDy=0;entryX=0;entryY=0;entryDx=0;entryDy=0;" parent="1" source="5" target="BFMFk2xktWWGfKK36Wba-42" edge="1">
                    <mxGeometry width="160" relative="1" as="geometry">
                        <mxPoint x="455" y="85.00000000000011" as="sourcePoint"/>
                        <mxPoint x="530.0000000000027" y="85.00000000000011" as="targetPoint"/>
                    </mxGeometry>
                </mxCell>
                <mxCell id="BFMFk2xktWWGfKK36Wba-45" value="&amp;lt;&amp;lt;include&amp;gt;&amp;gt;" style="html=1;verticalAlign=bottom;labelBackgroundColor=none;endArrow=open;endFill=0;dashed=1;exitX=1;exitY=0.5;exitDx=0;exitDy=0;entryX=0;entryY=0;entryDx=0;entryDy=0;" parent="1" source="7" target="BFMFk2xktWWGfKK36Wba-42" edge="1">
                    <mxGeometry width="160" relative="1" as="geometry">
                        <mxPoint x="465" y="95.00000000000011" as="sourcePoint"/>
                        <mxPoint x="540" y="260" as="targetPoint"/>
                    </mxGeometry>
                </mxCell>
                <mxCell id="BFMFk2xktWWGfKK36Wba-46" value="&amp;lt;&amp;lt;include&amp;gt;&amp;gt;" style="html=1;verticalAlign=bottom;labelBackgroundColor=none;endArrow=open;endFill=0;dashed=1;exitX=1;exitY=0.5;exitDx=0;exitDy=0;entryX=0;entryY=0.5;entryDx=0;entryDy=0;" parent="1" source="8" target="BFMFk2xktWWGfKK36Wba-42" edge="1">
                    <mxGeometry width="160" relative="1" as="geometry">
                        <mxPoint x="475" y="105.00000000000011" as="sourcePoint"/>
                        <mxPoint x="550.0000000000027" y="105.00000000000011" as="targetPoint"/>
                    </mxGeometry>
                </mxCell>
                <mxCell id="BFMFk2xktWWGfKK36Wba-47" value="&amp;lt;&amp;lt;include&amp;gt;&amp;gt;" style="html=1;verticalAlign=bottom;labelBackgroundColor=none;endArrow=open;endFill=0;dashed=1;exitX=1;exitY=0.5;exitDx=0;exitDy=0;entryX=0;entryY=1;entryDx=0;entryDy=0;" parent="1" source="9" target="BFMFk2xktWWGfKK36Wba-42" edge="1">
                    <mxGeometry width="160" relative="1" as="geometry">
                        <mxPoint x="485" y="115.00000000000011" as="sourcePoint"/>
                        <mxPoint x="560.0000000000027" y="115.00000000000011" as="targetPoint"/>
                    </mxGeometry>
                </mxCell>
                <mxCell id="BFMFk2xktWWGfKK36Wba-48" value="&amp;lt;&amp;lt;include&amp;gt;&amp;gt;" style="html=1;verticalAlign=bottom;labelBackgroundColor=none;endArrow=open;endFill=0;dashed=1;exitX=1;exitY=0.5;exitDx=0;exitDy=0;entryX=0;entryY=1;entryDx=0;entryDy=0;" parent="1" source="11" target="BFMFk2xktWWGfKK36Wba-42" edge="1">
                    <mxGeometry width="160" relative="1" as="geometry">
                        <mxPoint x="460" y="425" as="sourcePoint"/>
                        <mxPoint x="538.8186742478981" y="347.59288600080095" as="targetPoint"/>
                    </mxGeometry>
                </mxCell>
                <mxCell id="BFMFk2xktWWGfKK36Wba-49" value="Lưu trữ dữ liệu" style="ellipse;whiteSpace=wrap;html=1;" parent="1" vertex="1">
                    <mxGeometry x="690" y="377.5" width="125" height="50" as="geometry"/>
                </mxCell>
                <mxCell id="BFMFk2xktWWGfKK36Wba-51" style="edgeStyle=none;html=1;exitX=0.5;exitY=0.5;exitDx=0;exitDy=0;exitPerimeter=0;entryX=1;entryY=0.5;entryDx=0;entryDy=0;fontSize=18;" parent="1" source="BFMFk2xktWWGfKK36Wba-50" target="BFMFk2xktWWGfKK36Wba-49" edge="1">
                    <mxGeometry relative="1" as="geometry"/>
                </mxCell>
                <mxCell id="BFMFk2xktWWGfKK36Wba-50" value="SQLite DB" style="shape=umlActor;verticalLabelPosition=bottom;verticalAlign=top;html=1;" parent="1" vertex="1">
                    <mxGeometry x="940" y="350" width="60" height="105" as="geometry"/>
                </mxCell>
                <mxCell id="BFMFk2xktWWGfKK36Wba-53" value="&amp;lt;&amp;lt;include&amp;gt;&amp;gt;" style="html=1;verticalAlign=bottom;labelBackgroundColor=none;endArrow=open;endFill=0;dashed=1;exitX=0;exitY=0.5;exitDx=0;exitDy=0;entryX=1;entryY=0.5;entryDx=0;entryDy=0;" parent="1" source="BFMFk2xktWWGfKK36Wba-49" target="BFMFk2xktWWGfKK36Wba-42" edge="1">
                    <mxGeometry width="160" relative="1" as="geometry">
                        <mxPoint x="462.5" y="520" as="sourcePoint"/>
                        <mxPoint x="538.8186742478981" y="352.59288600080095" as="targetPoint"/>
                    </mxGeometry>
                </mxCell>
                <mxCell id="BFMFk2xktWWGfKK36Wba-54" value="&amp;lt;&amp;lt;include&amp;gt;&amp;gt;" style="html=1;verticalAlign=bottom;labelBackgroundColor=none;endArrow=open;endFill=0;dashed=1;exitX=0.5;exitY=1;exitDx=0;exitDy=0;entryX=0.5;entryY=0;entryDx=0;entryDy=0;" parent="1" source="BFMFk2xktWWGfKK36Wba-31" target="BFMFk2xktWWGfKK36Wba-49" edge="1">
                    <mxGeometry width="160" relative="1" as="geometry">
                        <mxPoint x="700" y="412.5" as="sourcePoint"/>
                        <mxPoint x="650" y="335" as="targetPoint"/>
                    </mxGeometry>
                </mxCell>
            </root>
        </mxGraphModel>
    </diagram>
    <diagram name="Page-2" id="GrxbLd0uZsV-bF7C5AWy">
        <mxGraphModel dx="167" dy="1529" grid="1" gridSize="10" guides="1" tooltips="1" connect="1" arrows="1" fold="1" page="1" pageScale="1" pageWidth="850" pageHeight="1100" math="0" shadow="0">
            <root>
                <mxCell id="0"/>
                <mxCell id="1" parent="0"/>
                <mxCell id="iTz_pmhG6tZPBhArTx9c-1" value="Bắt đầu" style="ellipse;whiteSpace=wrap;html=1;" parent="1" vertex="1">
                    <mxGeometry x="1059.38" y="-20" width="120" height="80" as="geometry"/>
                </mxCell>
                <mxCell id="iTz_pmhG6tZPBhArTx9c-4" style="edgeStyle=none;html=1;exitX=0.5;exitY=1;exitDx=0;exitDy=0;entryX=0.5;entryY=0;entryDx=0;entryDy=0;" parent="1" source="iTz_pmhG6tZPBhArTx9c-1" target="iTz_pmhG6tZPBhArTx9c-52" edge="1">
                    <mxGeometry relative="1" as="geometry">
                        <mxPoint x="1119.38" y="80" as="sourcePoint"/>
                        <mxPoint x="1119.38" y="120" as="targetPoint"/>
                    </mxGeometry>
                </mxCell>
                <mxCell id="iTz_pmhG6tZPBhArTx9c-5" style="edgeStyle=none;html=1;exitX=0.5;exitY=1;exitDx=0;exitDy=0;entryX=0.5;entryY=0;entryDx=0;entryDy=0;" parent="1" source="iTz_pmhG6tZPBhArTx9c-52" target="iTz_pmhG6tZPBhArTx9c-53" edge="1">
                    <mxGeometry relative="1" as="geometry">
                        <mxPoint x="1119.38" y="220" as="targetPoint"/>
                        <mxPoint x="1119.38" y="180" as="sourcePoint"/>
                    </mxGeometry>
                </mxCell>
                <mxCell id="iTz_pmhG6tZPBhArTx9c-13" style="edgeStyle=none;html=1;exitX=0.5;exitY=1;exitDx=0;exitDy=0;entryX=0.5;entryY=0;entryDx=0;entryDy=0;" parent="1" source="iTz_pmhG6tZPBhArTx9c-14" target="iTz_pmhG6tZPBhArTx9c-33" edge="1">
                    <mxGeometry relative="1" as="geometry">
                        <mxPoint x="1652.8000000000002" y="750" as="targetPoint"/>
                    </mxGeometry>
                </mxCell>
                <mxCell id="iTz_pmhG6tZPBhArTx9c-14" value="Lưu ngân sách" style="rounded=1;whiteSpace=wrap;html=1;arcSize=0;" parent="1" vertex="1">
                    <mxGeometry x="1549.98" y="650" width="120" height="60" as="geometry"/>
                </mxCell>
                <mxCell id="iTz_pmhG6tZPBhArTx9c-15" style="edgeStyle=none;html=1;exitX=1;exitY=0.5;exitDx=0;exitDy=0;entryX=0;entryY=0.5;entryDx=0;entryDy=0;" parent="1" source="iTz_pmhG6tZPBhArTx9c-17" target="iTz_pmhG6tZPBhArTx9c-63" edge="1">
                    <mxGeometry relative="1" as="geometry">
                        <mxPoint x="1389.98" y="720" as="targetPoint"/>
                    </mxGeometry>
                </mxCell>
                <mxCell id="iTz_pmhG6tZPBhArTx9c-16" style="edgeStyle=none;html=1;exitX=0.5;exitY=0;exitDx=0;exitDy=0;entryX=1;entryY=0.5;entryDx=0;entryDy=0;" parent="1" source="iTz_pmhG6tZPBhArTx9c-17" target="iTz_pmhG6tZPBhArTx9c-53" edge="1">
                    <mxGeometry relative="1" as="geometry">
                        <Array as="points">
                            <mxPoint x="1300" y="250"/>
                        </Array>
                        <mxPoint x="1169.38" y="250" as="targetPoint"/>
                    </mxGeometry>
                </mxCell>
                <mxCell id="iTz_pmhG6tZPBhArTx9c-17" value="Đủ thông tin" style="rhombus;whiteSpace=wrap;html=1;" parent="1" vertex="1">
                    <mxGeometry x="1247.3400000000001" y="640" width="100" height="80" as="geometry"/>
                </mxCell>
                <mxCell id="iTz_pmhG6tZPBhArTx9c-18" style="edgeStyle=none;html=1;exitX=0.5;exitY=1;exitDx=0;exitDy=0;entryX=0.5;entryY=0;entryDx=0;entryDy=0;" parent="1" source="iTz_pmhG6tZPBhArTx9c-55" target="iTz_pmhG6tZPBhArTx9c-59" edge="1">
                    <mxGeometry relative="1" as="geometry">
                        <mxPoint x="1119.38" y="670" as="targetPoint"/>
                        <mxPoint x="1119.38" y="600" as="sourcePoint"/>
                    </mxGeometry>
                </mxCell>
                <mxCell id="iTz_pmhG6tZPBhArTx9c-20" value="YES" style="text;html=1;strokeColor=none;fillColor=none;align=center;verticalAlign=middle;whiteSpace=wrap;rounded=0;" parent="1" vertex="1">
                    <mxGeometry x="1339.98" y="650" width="60" height="30" as="geometry"/>
                </mxCell>
                <mxCell id="iTz_pmhG6tZPBhArTx9c-26" style="edgeStyle=none;html=1;entryX=0.5;entryY=0;entryDx=0;entryDy=0;exitX=0.5;exitY=1;exitDx=0;exitDy=0;" parent="1" source="iTz_pmhG6tZPBhArTx9c-54" target="iTz_pmhG6tZPBhArTx9c-55" edge="1">
                    <mxGeometry relative="1" as="geometry">
                        <mxPoint x="1120" y="380" as="sourcePoint"/>
                        <mxPoint x="1119.38" y="430" as="targetPoint"/>
                    </mxGeometry>
                </mxCell>
                <mxCell id="iTz_pmhG6tZPBhArTx9c-27" style="edgeStyle=none;html=1;exitX=0.5;exitY=1;exitDx=0;exitDy=0;entryX=0.5;entryY=0;entryDx=0;entryDy=0;" parent="1" source="iTz_pmhG6tZPBhArTx9c-53" target="iTz_pmhG6tZPBhArTx9c-54" edge="1">
                    <mxGeometry relative="1" as="geometry">
                        <mxPoint x="1119.38" y="280" as="sourcePoint"/>
                        <mxPoint x="1119.38" y="330" as="targetPoint"/>
                    </mxGeometry>
                </mxCell>
                <mxCell id="iTz_pmhG6tZPBhArTx9c-33" value="Kết thúc" style="ellipse;whiteSpace=wrap;html=1;" parent="1" vertex="1">
                    <mxGeometry x="1549.9799999999996" y="760" width="120" height="80" as="geometry"/>
                </mxCell>
                <mxCell id="iTz_pmhG6tZPBhArTx9c-43" style="edgeStyle=none;html=1;exitX=1;exitY=0.5;exitDx=0;exitDy=0;entryX=0;entryY=0.5;entryDx=0;entryDy=0;" parent="1" source="iTz_pmhG6tZPBhArTx9c-65" target="iTz_pmhG6tZPBhArTx9c-17" edge="1">
                    <mxGeometry relative="1" as="geometry">
                        <mxPoint x="1297.3400000000001" y="570" as="targetPoint"/>
                        <mxPoint x="1179.38" y="570" as="sourcePoint"/>
                    </mxGeometry>
                </mxCell>
                <mxCell id="iTz_pmhG6tZPBhArTx9c-51" value="NO" style="text;html=1;strokeColor=none;fillColor=none;align=center;verticalAlign=middle;whiteSpace=wrap;rounded=0;" parent="1" vertex="1">
                    <mxGeometry x="1247.3400000000001" y="600" width="60" height="30" as="geometry"/>
                </mxCell>
                <mxCell id="iTz_pmhG6tZPBhArTx9c-52" value="Tạo ngân sách" style="shape=parallelogram;perimeter=parallelogramPerimeter;whiteSpace=wrap;html=1;fixedSize=1;" parent="1" vertex="1">
                    <mxGeometry x="1044.38" y="120" width="150" height="60" as="geometry"/>
                </mxCell>
                <mxCell id="iTz_pmhG6tZPBhArTx9c-53" value="Điền thông&lt;br&gt;tin ngân sách" style="shape=parallelogram;perimeter=parallelogramPerimeter;whiteSpace=wrap;html=1;fixedSize=1;" parent="1" vertex="1">
                    <mxGeometry x="1059.38" y="220" width="120" height="60" as="geometry"/>
                </mxCell>
                <mxCell id="iTz_pmhG6tZPBhArTx9c-54" value="Chọn kiểu&lt;br&gt;giao dịch" style="shape=parallelogram;perimeter=parallelogramPerimeter;whiteSpace=wrap;html=1;fixedSize=1;" parent="1" vertex="1">
                    <mxGeometry x="1059.38" y="330" width="120" height="60" as="geometry"/>
                </mxCell>
                <mxCell id="iTz_pmhG6tZPBhArTx9c-55" value="Chọn loại &lt;br&gt;giao dịch" style="shape=parallelogram;perimeter=parallelogramPerimeter;whiteSpace=wrap;html=1;fixedSize=1;" parent="1" vertex="1">
                    <mxGeometry x="1059.38" y="430" width="120" height="60" as="geometry"/>
                </mxCell>
                <mxCell id="iTz_pmhG6tZPBhArTx9c-66" style="edgeStyle=none;html=1;exitX=0.5;exitY=1;exitDx=0;exitDy=0;entryX=0.5;entryY=0;entryDx=0;entryDy=0;" parent="1" source="iTz_pmhG6tZPBhArTx9c-59" target="iTz_pmhG6tZPBhArTx9c-65" edge="1">
                    <mxGeometry relative="1" as="geometry"/>
                </mxCell>
                <mxCell id="iTz_pmhG6tZPBhArTx9c-59" value="Chọn ví" style="shape=parallelogram;perimeter=parallelogramPerimeter;whiteSpace=wrap;html=1;fixedSize=1;" parent="1" vertex="1">
                    <mxGeometry x="1059.38" y="540" width="120" height="60" as="geometry"/>
                </mxCell>
                <mxCell id="iTz_pmhG6tZPBhArTx9c-64" style="edgeStyle=none;html=1;exitX=1;exitY=0.5;exitDx=0;exitDy=0;entryX=0;entryY=0.5;entryDx=0;entryDy=0;" parent="1" source="iTz_pmhG6tZPBhArTx9c-63" target="iTz_pmhG6tZPBhArTx9c-14" edge="1">
                    <mxGeometry relative="1" as="geometry"/>
                </mxCell>
                <mxCell id="iTz_pmhG6tZPBhArTx9c-63" value="Lựa chọn lặp &lt;br&gt;lại ngân sách &lt;br&gt;hay không" style="shape=parallelogram;perimeter=parallelogramPerimeter;whiteSpace=wrap;html=1;fixedSize=1;" parent="1" vertex="1">
                    <mxGeometry x="1389.98" y="650" width="120" height="60" as="geometry"/>
                </mxCell>
                <mxCell id="iTz_pmhG6tZPBhArTx9c-65" value="Chọn khoảng &lt;br&gt;thời gian &lt;br&gt;cho ngân sách" style="shape=parallelogram;perimeter=parallelogramPerimeter;whiteSpace=wrap;html=1;fixedSize=1;" parent="1" vertex="1">
                    <mxGeometry x="1059.3800000000003" y="650" width="120" height="60" as="geometry"/>
                </mxCell>
            </root>
        </mxGraphModel>
    </diagram>
    <diagram name="Page-1" id="MjC0Xt7hNYhNgvvKBY5t">
        <mxGraphModel dx="1017" dy="429" grid="1" gridSize="10" guides="1" tooltips="1" connect="1" arrows="1" fold="1" page="1" pageScale="1" pageWidth="850" pageHeight="1100" math="0" shadow="0">
            <root>
                <mxCell id="0"/>
                <mxCell id="1" parent="0"/>
                <mxCell id="LZn6q_bhWbyUxX0vCa_t-50" value="Mobile Application" style="rounded=0;whiteSpace=wrap;html=1;" parent="1" vertex="1">
                    <mxGeometry x="380" y="400" width="140" height="60" as="geometry"/>
                </mxCell>
                <mxCell id="LZn6q_bhWbyUxX0vCa_t-52" value="Backend" style="rounded=0;whiteSpace=wrap;html=1;" parent="1" vertex="1">
                    <mxGeometry x="670" y="400" width="120" height="60" as="geometry"/>
                </mxCell>
                <mxCell id="LZn6q_bhWbyUxX0vCa_t-54" value="" style="endArrow=classic;html=1;exitX=0;exitY=0.25;exitDx=0;exitDy=0;entryX=1;entryY=0.3;entryDx=0;entryDy=0;" parent="1" source="LZn6q_bhWbyUxX0vCa_t-50" target="LZn6q_bhWbyUxX0vCa_t-66" edge="1">
                    <mxGeometry relative="1" as="geometry">
                        <mxPoint x="460" y="430" as="sourcePoint"/>
                        <mxPoint x="230" y="415" as="targetPoint"/>
                    </mxGeometry>
                </mxCell>
                <mxCell id="LZn6q_bhWbyUxX0vCa_t-55" value="request" style="edgeLabel;resizable=0;html=1;align=center;verticalAlign=middle;" parent="LZn6q_bhWbyUxX0vCa_t-54" connectable="0" vertex="1">
                    <mxGeometry relative="1" as="geometry"/>
                </mxCell>
                <mxCell id="LZn6q_bhWbyUxX0vCa_t-56" value="" style="endArrow=classic;html=1;entryX=0;entryY=0.75;entryDx=0;entryDy=0;exitX=1;exitY=0.7;exitDx=0;exitDy=0;" parent="1" source="LZn6q_bhWbyUxX0vCa_t-66" target="LZn6q_bhWbyUxX0vCa_t-50" edge="1">
                    <mxGeometry relative="1" as="geometry">
                        <mxPoint x="230" y="440" as="sourcePoint"/>
                        <mxPoint x="560" y="430" as="targetPoint"/>
                    </mxGeometry>
                </mxCell>
                <mxCell id="LZn6q_bhWbyUxX0vCa_t-57" value="response" style="edgeLabel;resizable=0;html=1;align=center;verticalAlign=middle;" parent="LZn6q_bhWbyUxX0vCa_t-56" connectable="0" vertex="1">
                    <mxGeometry relative="1" as="geometry"/>
                </mxCell>
                <mxCell id="LZn6q_bhWbyUxX0vCa_t-58" value="" style="endArrow=classic;html=1;entryX=0;entryY=0.25;entryDx=0;entryDy=0;exitX=1;exitY=0.25;exitDx=0;exitDy=0;" parent="1" source="LZn6q_bhWbyUxX0vCa_t-50" target="LZn6q_bhWbyUxX0vCa_t-52" edge="1">
                    <mxGeometry relative="1" as="geometry">
                        <mxPoint x="460" y="430" as="sourcePoint"/>
                        <mxPoint x="560" y="430" as="targetPoint"/>
                    </mxGeometry>
                </mxCell>
                <mxCell id="LZn6q_bhWbyUxX0vCa_t-59" value="request" style="edgeLabel;resizable=0;html=1;align=center;verticalAlign=middle;" parent="LZn6q_bhWbyUxX0vCa_t-58" connectable="0" vertex="1">
                    <mxGeometry relative="1" as="geometry"/>
                </mxCell>
                <mxCell id="LZn6q_bhWbyUxX0vCa_t-60" value="" style="endArrow=classic;html=1;entryX=1;entryY=0.75;entryDx=0;entryDy=0;exitX=0;exitY=0.75;exitDx=0;exitDy=0;" parent="1" source="LZn6q_bhWbyUxX0vCa_t-52" target="LZn6q_bhWbyUxX0vCa_t-50" edge="1">
                    <mxGeometry relative="1" as="geometry">
                        <mxPoint x="460" y="430" as="sourcePoint"/>
                        <mxPoint x="560" y="430" as="targetPoint"/>
                    </mxGeometry>
                </mxCell>
                <mxCell id="LZn6q_bhWbyUxX0vCa_t-61" value="response" style="edgeLabel;resizable=0;html=1;align=center;verticalAlign=middle;" parent="LZn6q_bhWbyUxX0vCa_t-60" connectable="0" vertex="1">
                    <mxGeometry relative="1" as="geometry"/>
                </mxCell>
                <mxCell id="LZn6q_bhWbyUxX0vCa_t-62" value="" style="endArrow=classic;html=1;entryX=0;entryY=0.3;entryDx=0;entryDy=0;exitX=0.25;exitY=1;exitDx=0;exitDy=0;" parent="1" source="LZn6q_bhWbyUxX0vCa_t-52" target="LZn6q_bhWbyUxX0vCa_t-67" edge="1">
                    <mxGeometry relative="1" as="geometry">
                        <mxPoint x="470" y="550" as="sourcePoint"/>
                        <mxPoint x="700" y="550" as="targetPoint"/>
                    </mxGeometry>
                </mxCell>
                <mxCell id="LZn6q_bhWbyUxX0vCa_t-63" value="request" style="edgeLabel;resizable=0;html=1;align=center;verticalAlign=middle;" parent="LZn6q_bhWbyUxX0vCa_t-62" connectable="0" vertex="1">
                    <mxGeometry relative="1" as="geometry"/>
                </mxCell>
                <mxCell id="LZn6q_bhWbyUxX0vCa_t-64" value="" style="endArrow=classic;html=1;entryX=0.75;entryY=1;entryDx=0;entryDy=0;exitX=1;exitY=0.3;exitDx=0;exitDy=0;" parent="1" source="LZn6q_bhWbyUxX0vCa_t-67" target="LZn6q_bhWbyUxX0vCa_t-52" edge="1">
                    <mxGeometry relative="1" as="geometry">
                        <mxPoint x="760" y="550" as="sourcePoint"/>
                        <mxPoint x="570" y="550" as="targetPoint"/>
                    </mxGeometry>
                </mxCell>
                <mxCell id="LZn6q_bhWbyUxX0vCa_t-65" value="response" style="edgeLabel;resizable=0;html=1;align=center;verticalAlign=middle;" parent="LZn6q_bhWbyUxX0vCa_t-64" connectable="0" vertex="1">
                    <mxGeometry relative="1" as="geometry"/>
                </mxCell>
                <mxCell id="LZn6q_bhWbyUxX0vCa_t-66" value="SQLite Database" style="shape=cylinder;whiteSpace=wrap;html=1;boundedLbl=1;backgroundOutline=1;" parent="1" vertex="1">
                    <mxGeometry x="170" y="390" width="60" height="80" as="geometry"/>
                </mxCell>
                <mxCell id="LZn6q_bhWbyUxX0vCa_t-67" value="Firestore Database" style="shape=cylinder;whiteSpace=wrap;html=1;boundedLbl=1;backgroundOutline=1;" parent="1" vertex="1">
                    <mxGeometry x="700" y="550" width="60" height="80" as="geometry"/>
                </mxCell>
            </root>
        </mxGraphModel>
    </diagram>
</mxfile>